HIERARCHY
ROOT Hips
{
	OFFSET -0.001795 -0.223333 0.028219
	CHANNELS 6 Xposition Yposition Zposition Zrotation Yrotation Xrotation 
	JOINT LeftUpLeg
	{
		OFFSET 0.069520 -0.091406 -0.006815
		CHANNELS 3 Zrotation Yrotation Xrotation
		JOINT LeftLeg
		{
			OFFSET 0.034277 -0.375199 -0.004496
			CHANNELS 3 Zrotation Yrotation Xrotation
			JOINT LeftFoot
			{
				OFFSET -0.013596 -0.397961 -0.043693
				CHANNELS 3 Zrotation Yrotation Xrotation
				JOINT LeftToe
				{
					OFFSET 0.026358 -0.055791 0.119288
					CHANNELS 3 Zrotation Yrotation Xrotation
					End Site
					{
						OFFSET 0.000000 0.000000 0.000000
					}
				}
			}
		}
	}
	JOINT RightUpLeg
	{
		OFFSET -0.067670 -0.090522 -0.004320
		CHANNELS 3 Zrotation Yrotation Xrotation
		JOINT RightLeg
		{
			OFFSET -0.038290 -0.382569 -0.008850
			CHANNELS 3 Zrotation Yrotation Xrotation
			JOINT RightFoot
			{
				OFFSET 0.015774 -0.398415 -0.042312
				CHANNELS 3 Zrotation Yrotation Xrotation
				JOINT RightToe
				{
					OFFSET -0.025372 -0.048144 0.123348
					CHANNELS 3 Zrotation Yrotation Xrotation
					End Site
					{
						OFFSET 0.000000 0.000000 0.000000
					}
				}
			}
		}
	}
	JOINT Spine
	{
		OFFSET -0.002533 0.108963 -0.026696
		CHANNELS 3 Zrotation Yrotation Xrotation
		JOINT Spine1
		{
			OFFSET 0.005487 0.135180 0.001092
			CHANNELS 3 Zrotation Yrotation Xrotation
			JOINT Spine2
			{
				OFFSET 0.001457 0.052922 0.025425
				CHANNELS 3 Zrotation Yrotation Xrotation
				JOINT Neck
				{
					OFFSET -0.002778 0.213870 -0.042857
					CHANNELS 3 Zrotation Yrotation Xrotation
					JOINT Head
					{
						OFFSET 0.005152 0.064970 0.051349
						CHANNELS 3 Zrotation Yrotation Xrotation
						End Site
						{
							OFFSET 0.000000 0.000000 0.000000
						}
					}
				}
				JOINT LeftShoulder
				{
					OFFSET 0.078845 0.121749 -0.034090
					CHANNELS 3 Zrotation Yrotation Xrotation
					JOINT LeftArm
					{
						OFFSET 0.090977 0.030469 -0.008868
						CHANNELS 3 Zrotation Yrotation Xrotation
						JOINT LeftForeArm
						{
							OFFSET 0.259612 -0.012772 -0.027456
							CHANNELS 3 Zrotation Yrotation Xrotation
							JOINT LeftHand
							{
								OFFSET 0.249234 0.008986 -0.001171
								CHANNELS 3 Zrotation Yrotation Xrotation
								End Site
								{
									OFFSET 0.000000 0.000000 0.000000
								}
							}
						}
					}
				}
				JOINT RightShoulder
				{
					OFFSET -0.081759 0.118833 -0.038615
					CHANNELS 3 Zrotation Yrotation Xrotation
					JOINT RightArm
					{
						OFFSET -0.096012 0.032551 -0.009143
						CHANNELS 3 Zrotation Yrotation Xrotation
						JOINT RightForeArm
						{
							OFFSET -0.253742 -0.013329 -0.021401
							CHANNELS 3 Zrotation Yrotation Xrotation
							JOINT RightHand
							{
								OFFSET -0.255298 0.007772 -0.005559
								CHANNELS 3 Zrotation Yrotation Xrotation
								End Site
								{
									OFFSET 0.000000 0.000000 0.000000
								}
							}
						}
					}
				}
			}
		}
	}
}
MOTION
Frames: 11
Frame Time: 0.050000
-0.018722 0.906743 -0.093153 0.075015 6.569109 11.825311 7.307430 -2.155863 -37.829910 -3.678210 -0.613245 40.195177 -0.048169 0.291921 0.682760 0.000000 0.000000 0.000000 -4.599007 1.556410 -34.443502 4.253786 -1.670764 41.559638 -4.972225 -12.833044 2.492177 0.000000 0.000000 0.000000 1.635718 -1.010850 14.225812 -0.751892 0.562710 -6.755063 -3.466085 10.488655 13.098133 9.101844 -2.834116 -16.765890 0.000000 0.000000 0.000000 10.519753 0.451933 2.101763 10.937819 -19.450973 -2.573721 135.839847 -60.477281 -114.111203 0.000000 0.000000 0.000000 -3.153563 -10.465654 -3.970316 14.972960 -1.173997 -1.881470 168.673883 65.043612 179.609576 0.000000 0.000000 0.000000 
-0.017794 0.903664 -0.094299 0.221954 6.287149 11.533463 7.140377 -2.132648 -37.354779 -3.671989 -0.610274 40.866077 0.333917 0.360522 -0.778951 0.000000 0.000000 0.000000 -4.986542 1.486130 -35.002590 3.897443 -1.505850 43.123960 -4.343133 -11.240792 1.642832 0.000000 0.000000 0.000000 2.209262 -1.076037 13.883121 -0.410665 0.404972 -6.120343 -3.871133 10.165413 13.070426 9.169137 -3.179118 -15.651962 0.000000 0.000000 0.000000 10.838624 -0.332792 2.306062 8.758565 -18.536698 -2.152876 141.449869 -62.853730 -124.194877 0.000000 0.000000 0.000000 -2.883942 -10.625850 -4.012964 13.652795 -1.946262 -1.763362 171.160246 63.258083 -177.160922 0.000000 0.000000 0.000000 
-0.016687 0.901679 -0.094729 0.458185 6.291956 11.397543 6.980007 -2.161346 -37.081992 -3.810031 -0.562710 41.135587 0.854995 1.098942 -1.617093 0.000000 0.000000 0.000000 -5.464386 1.349180 -35.304916 3.696026 -1.444188 44.060924 -4.010028 -10.459836 1.753574 0.000000 0.000000 0.000000 2.778634 -1.127001 13.353120 -0.328913 0.355192 -5.623267 -3.760649 9.924392 13.102057 9.221392 -3.364230 -15.120058 0.000000 0.000000 0.000000 11.769844 -0.268613 2.458243 6.492963 -17.626015 -1.791339 146.010254 -62.745437 -130.718388 0.000000 0.000000 0.000000 -3.484738 -11.444558 -4.276269 14.353285 -2.116670 -1.844640 172.506468 63.147696 -174.912552 0.000000 0.000000 0.000000 
-0.015395 0.900850 -0.095250 0.661902 6.256781 11.123018 6.664537 -2.220090 -36.735195 -3.488873 -0.762101 41.928941 0.919287 0.938565 -2.196523 0.000000 0.000000 0.000000 -6.431606 1.070915 -35.707438 4.275118 -1.782050 44.548703 -3.712816 -9.907878 2.580827 0.000000 0.000000 0.000000 3.237088 -1.188192 13.230236 0.082364 0.199118 -5.856392 -3.424368 10.384611 13.350384 9.453651 -3.649351 -14.437061 0.000000 0.000000 0.000000 13.734803 0.149436 2.789336 4.366077 -18.080725 -1.691095 140.183558 -63.848237 -124.443431 0.000000 0.000000 0.000000 -2.678237 -11.469954 -4.338972 15.596094 -2.269895 -2.042779 176.784842 64.020233 -167.640107 0.000000 0.000000 0.000000 
-0.013618 0.898522 -0.096243 0.999389 5.859523 11.213584 6.530740 -2.242740 -37.201020 -3.713568 -0.598724 42.448967 1.206268 1.314317 -2.768973 0.000000 0.000000 0.000000 -7.029872 0.947589 -36.317408 4.036136 -1.586711 44.931918 -3.203827 -8.560928 1.826518 0.000000 0.000000 0.000000 3.188375 -1.110161 12.485886 0.638281 -0.034450 -5.705944 -2.625311 11.062486 13.247134 9.281984 -3.748239 -13.377045 0.000000 0.000000 0.000000 14.857799 1.708150 2.755221 3.553237 -19.924570 -1.879212 127.705432 -65.500962 -110.458918 0.000000 0.000000 0.000000 -0.942193 -11.822337 -4.536779 18.221793 -0.293443 -2.269077 -173.426932 65.326118 -151.838139 0.000000 0.000000 0.000000 
-0.011017 0.896353 -0.097393 1.252318 6.036440 11.367574 5.529185 -2.545125 -37.136543 -3.459392 -0.800895 43.003999 1.858077 2.198837 -4.034807 0.000000 0.000000 0.000000 -7.227527 0.861622 -36.865363 4.017949 -1.661616 45.900997 -3.540576 -9.294882 1.519461 0.000000 0.000000 0.000000 3.607429 -1.137415 11.979806 0.851484 -0.124986 -5.565317 -1.163725 10.799034 13.227058 8.623218 -3.919894 -10.957589 0.000000 0.000000 0.000000 15.907361 3.494325 2.573849 2.078891 -22.606639 -2.082364 106.351084 -67.415943 -88.140348 0.000000 0.000000 0.000000 0.810400 -12.113821 -4.696125 21.014135 2.810042 -2.290071 -162.465720 66.145926 -135.590740 0.000000 0.000000 0.000000 
-0.007392 0.895712 -0.098392 1.382003 6.127903 11.337710 5.026377 -2.637154 -36.449854 -3.687018 -0.693971 42.515938 2.048913 2.184002 -4.940913 0.000000 0.000000 0.000000 -7.811905 0.668390 -37.118742 4.297940 -1.863918 46.299097 -3.936546 -10.153986 1.068135 0.000000 0.000000 0.000000 4.377634 -1.200222 11.348285 1.022713 -0.193498 -5.567543 0.264975 11.932120 12.776693 7.730133 -4.012814 -7.717316 0.000000 0.000000 0.000000 15.254917 3.353988 2.595965 1.418203 -26.089954 -2.500403 82.805748 -68.042409 -66.038793 0.000000 0.000000 0.000000 2.391009 -12.923418 -5.082446 27.147621 5.007367 -2.399811 -158.762797 65.765813 -128.359994 0.000000 0.000000 0.000000 
-0.003500 0.897041 -0.099674 1.793272 5.578130 11.246131 4.099282 -2.806815 -36.186636 -4.191156 -0.347555 42.262569 2.404372 3.089748 -4.897914 0.000000 0.000000 0.000000 -8.013285 0.682038 -37.042995 2.982166 -0.998587 46.355026 -3.782305 -9.765792 0.907951 0.000000 0.000000 0.000000 4.421719 -1.140884 10.748739 0.429372 0.009724 -4.864536 1.578895 12.207581 12.702429 7.099904 -3.858712 -6.500473 0.000000 0.000000 0.000000 15.902099 5.183250 2.376726 0.780252 -28.088059 -2.671061 64.777676 -64.996959 -47.935919 0.000000 0.000000 0.000000 2.595012 -14.238097 -5.645042 33.711297 7.776479 -1.991727 -150.084733 66.619917 -115.968386 0.000000 0.000000 0.000000 
-0.000391 0.902017 -0.101032 2.238634 6.216484 10.549213 2.824803 -2.999923 -34.033854 -3.632968 -0.704881 40.549001 1.987854 1.929116 -5.053915 0.000000 0.000000 0.000000 -8.506783 0.451500 -35.704390 2.210435 -0.683195 45.578178 -3.909994 -10.099787 1.192204 0.000000 0.000000 0.000000 4.794836 -1.190137 10.756460 0.164222 0.172052 -5.969776 1.696513 12.268436 13.664391 6.974034 -3.968707 -5.637209 0.000000 0.000000 0.000000 18.111315 4.089787 3.101646 2.254681 -26.882570 -2.781091 52.436256 -59.165835 -35.078426 0.000000 0.000000 0.000000 2.401334 -14.200944 -5.631655 33.130575 7.360608 -2.197470 -145.228031 66.926750 -109.320702 0.000000 0.000000 0.000000 
0.001215 0.909168 -0.102164 2.689173 6.689025 10.533740 2.037866 -3.136286 -33.081127 -3.171502 -0.948907 39.244955 1.592840 1.655881 -3.724320 0.000000 0.000000 0.000000 -9.242343 0.213474 -34.163656 2.284118 -0.779849 43.797146 -3.786934 -9.701630 0.746906 0.000000 0.000000 0.000000 4.915607 -1.172251 10.347222 -0.317441 0.417340 -7.296940 1.191897 12.515753 14.801891 7.299953 -4.540844 -4.401291 0.000000 0.000000 0.000000 19.992341 4.825866 3.462503 6.313831 -24.343066 -2.975181 47.689252 -56.011401 -30.463605 0.000000 0.000000 0.000000 -3.572978 -15.538533 -5.976577 28.826813 3.171519 -2.716280 -147.920681 69.966139 -115.113462 0.000000 0.000000 0.000000 
0.001568 0.917564 -0.102160 3.262275 7.859837 10.346837 0.737129 -3.373956 -31.625339 -2.124923 -1.529365 37.528397 1.114579 1.158280 -2.484536 0.000000 0.000000 0.000000 -9.574469 0.036072 -31.931270 1.312883 -0.443190 41.686357 -3.271722 -8.637038 1.860035 0.000000 0.000000 0.000000 4.465910 -1.042283 9.592831 -0.570317 0.543875 -7.560982 0.350335 11.303252 16.070373 7.113212 -4.800360 -3.081860 0.000000 0.000000 0.000000 22.282825 8.286880 3.359846 9.764331 -21.612868 -2.844493 42.570064 -52.917063 -25.697187 0.000000 0.000000 0.000000 -11.644071 -16.767128 -5.873402 21.698762 -0.151453 -2.475504 -154.603922 76.462195 -129.324856 0.000000 0.000000 0.000000 
